# xmcd CD database file
#
# Track frame offsets:
#	150
#	15588
#	36011
#	48197
#	64280
#	79031
#	94994
#	116276
#	133509
#	141397
#	169730
#	186495
#	201964
#
# Disc length: 2871 seconds
#
# Revision: 0
# Processed by: cddbd v1.5.2PL0 Copyright (c) Steve Scherf et al.
# Submitted via: CDex 1.51
#
DISCID=b40b350d
DTITLE=The Canton Café Orchestra - El Ultimo Café
DYEAR=2006
DGENRE=Jazz
TTITLE0=El Ultimo Café (H. Stamponi)
TTITLE1=La Camparsita (G.M. Rodriguez)
TTITLE2=Por Una Cabeza (C. Gardel)
TTITLE3=North Star 1 (S. Thorne)
TTITLE4=North Star 2 (S. Thorne)
TTITLE5=Melodia de Arabal (C. Gardel)
TTITLE6=Los Mareados (J.C. Cobian)
TTITLE7=Lavava no Rio Lavava (J.F. Rocha)
TTITLE8=La Dolce Vita (N. Rota)
TTITLE9=The Rough Dancer (A. Piazzolla)
TTITLE10=Otono Porteno (A. Piazzolla)
TTITLE11=Tive Un Coracao Perdio (J.F. Rocha)
TTITLE12=5 2 Tango (D. Jones)
EXTD=YEAR: 2006
EXTT0=
EXTT1=
EXTT2=
EXTT3=
EXTT4=
EXTT5=
EXTT6=
EXTT7=
EXTT8=
EXTT9=
EXTT10=
EXTT11=
EXTT12=
PLAYORDER=
